# xmcd CD database file
#
# Track frame offsets:
#	150
#	19615
#	32206
#	48406
#	65008
#	78755
#	99820
#	114182
#	128509
#	144886
#	168138
#	189149
#	204492
#
# Disc length: 3079 seconds
#
# Revision: 0
# Processed by: cddbd v1.5.2PL0 Copyright (c) Steve Scherf et al.
# Submitted via: CDex 1.51
#
DISCID=920c050d
DTITLE=michael alf trio - michael alf trio - black fantasy
DYEAR=2010
DGENRE=Blues
TTITLE0=boogie woogie stomp
TTITLE1=black fantasy
TTITLE2=ooh poo pee doo
TTITLE3=foggy night
TTITLE4=walking this boogie
TTITLE5=st louis blues
TTITLE6=java
TTITLE7=baby what you want me to do
TTITLE8=maple leaf rag
TTITLE9=chill blues
TTITLE10=kiss
TTITLE11=yancey special
TTITLE12=one for my baby
EXTD=YEAR: 2010
EXTT0=
EXTT1=
EXTT2=
EXTT3=
EXTT4=
EXTT5=
EXTT6=
EXTT7=
EXTT8=
EXTT9=
EXTT10=
EXTT11=
EXTT12=
PLAYORDER=
